<?xml version="1.0" encoding="iso-8859-1"?>
<!-- Generator: Adobe Illustrator 19.0.0, SVG Export Plug-In . SVG Version: 6.00 Build 0)  -->
<svg xmlns="http://www.w3.org/2000/svg" xmlns:xlink="http://www.w3.org/1999/xlink" version="1.1" id="Layer_1" x="0px" y="0px" viewBox="0 0 511.999 511.999" style="enable-background:new 0 0 511.999 511.999;" xml:space="preserve" width="512px" height="512px">
<g>
	<g>
		<path d="M291.602,0h-0.355h-70.492H220.4c-3.458,0-6.261,2.803-6.261,6.261v29.403c-0.001,3.457,2.802,6.261,6.26,6.261h0.355    V87.74c0,11.933-0.769,23.815-2.274,35.576l37.521,37.521l37.521-37.521c-1.505-11.762-2.274-23.642-2.274-35.576V41.925h0.355    c3.458,0,6.261-2.803,6.261-6.261V6.261C297.863,2.803,295.061,0,291.602,0z" fill="#4f4f4f"/>
	</g>
</g>
<g>
	<g>
		<path d="M329.172,228.537c-9.942-17.115-17.995-35.163-24.085-53.823l-33.346,33.346c-4.346,4.346-10.043,6.52-15.741,6.52    c-5.698,0-11.394-2.174-15.741-6.52l-33.346-33.346c-6.091,18.66-14.143,36.708-24.085,53.823    c-17.93,30.868-27.374,65.93-27.374,101.626v163.78c0,9.972,8.084,18.056,18.056,18.056h164.977    c9.972,0,18.056-8.084,18.056-18.056v-163.78C356.545,294.467,347.101,259.405,329.172,228.537z M189.969,299.81    c0.893-23.372,7.978-46.171,20.49-65.933c3.289-5.195,10.167-6.736,15.358-3.45c5.193,3.289,6.738,10.164,3.451,15.358    c-10.414,16.449-16.311,35.424-17.054,54.876c-0.229,5.998-5.163,10.705-11.115,10.705c-0.144,0-0.288-0.002-0.433-0.008    C194.524,311.123,189.734,305.953,189.969,299.81z M315.485,449.67c0,6.352-5.149,11.501-11.501,11.501h-95.965    c-6.352,0-11.501-5.149-11.501-11.501v-62.33c0-6.352,5.149-11.501,11.501-11.501h95.965c6.352,0,11.501,5.149,11.501,11.501    V449.67z" fill="#4f4f4f"/>
	</g>
</g>
<g>
</g>
<g>
</g>
<g>
</g>
<g>
</g>
<g>
</g>
<g>
</g>
<g>
</g>
<g>
</g>
<g>
</g>
<g>
</g>
<g>
</g>
<g>
</g>
<g>
</g>
<g>
</g>
<g>
</g>
</svg>
